<svg xmlns="http://www.w3.org/2000/svg" width="25" height="25" viewBox="0 0 25 25">
  <metadata><?xpacket begin="﻿" id="W5M0MpCehiHzreSzNTczkc9d"?>
<x:xmpmeta xmlns:x="adobe:ns:meta/" x:xmptk="Adobe XMP Core 5.6-c142 79.160924, 2017/07/13-01:06:39        ">
   <rdf:RDF xmlns:rdf="http://www.w3.org/1999/02/22-rdf-syntax-ns#">
      <rdf:Description rdf:about=""/>
   </rdf:RDF>
</x:xmpmeta>
                                                                                                    
                                                                                                    
                                                                                                    
                                                                                                    
                                                                                                    
                                                                                                    
                                                                                                    
                                                                                                    
                                                                                                    
                                                                                                    
                                                                                                    
                                                                                                    
                                                                                                    
                                                                                                    
                                                                                                    
                                                                                                    
                                                                                                    
                                                                                                    
                                                                                                    
                                                                                                    
                           
<?xpacket end="w"?></metadata>
<defs>
    <style>
      .cls-1 {
        fill: #fff;
        fill-rule: evenodd;
      }
    </style>
  </defs>
  <path id="fa-paper-plane" class="cls-1" d="M728.107,2463.99a0.8,0.8,0,0,0-.446.13l-23.215,13.39a0.883,0.883,0,0,0,.112,1.59l5.511,2.26,14.913-12.91-12.053,14.78v4.87a0.9,0.9,0,0,0,.16.51,0.853,0.853,0,0,0,.425.32,0.709,0.709,0,0,0,.307.06,0.831,0.831,0,0,0,.684-0.32l3.376-4.12,6.32,2.58a0.868,0.868,0,0,0,.335.07,0.8,0.8,0,0,0,.432-0.11,0.87,0.87,0,0,0,.447-0.62l3.571-21.43a0.886,0.886,0,0,0-.879-1.05h0Z" transform="translate(-704 -2464)"/>
</svg>
